<svg xmlns="http://www.w3.org/2000/svg" viewBox="0 0 576 609.7"><defs><style>.cls-1{fill:#172025;}.cls-2{fill:#444;}.cls-3{fill:#333a32;}.cls-4{fill:none;stroke:#b6b7bb;stroke-linecap:round;stroke-linejoin:round;stroke-width:3px;}.cls-5{fill:#4d5558;}.cls-6{fill:#b6b7bb;}.cls-7,.cls-8{font-size:6px;font-family:YDIYGO130-KSCpc-EUC-H, YDIYGO130-KSCpc-EUC-H;}.cls-7{fill:#ededed;}.cls-8{fill:#fff;}</style></defs><title>대지 1</title><g id="레이어_14" data-name="레이어 14"><rect class="cls-1" x="-2.15" y="0.64" width="578.15" height="609.06"/></g><g id="레이어_13" data-name="레이어 13"><path class="cls-2" d="M0-.36,76.91,0,79,108.83S47.12,278.11,46.28,280.76,35,337.31,35,337.31L47.16,557,61.55,609.7H0Z"/><polygon class="cls-3" points="221.05 370.44 210.33 403.81 253.11 399.57 221.05 370.44"/><rect class="cls-3" x="128.79" y="159.74" width="18.35" height="22.14"/><path class="cls-3" d="M621.33,370.33c-3.33-8.15-34-376.82-34-376.82H224.21l14.46,37.71,76.59,53,9.08,34.36,49.06,60.37s28.78,5.27,31.36,3.94S442,176.73,442,176.73l38.92,43.58,25.59,51.88,18.89,66.14,23.29,56.52-.88,43.33L586,480S624.67,378.49,621.33,370.33Z"/><polygon class="cls-3" points="104.05 532.85 120.62 613.03 334.12 613.03 334.12 597.35 305.85 496.97 104.05 532.85"/></g><g id="레이어_11" data-name="레이어 11"><polyline class="cls-4" points="104.05 532.85 84.56 456.96 46.28 454.9"/><polyline class="cls-4" points="60.76 540.47 82.77 520.33 100.24 518.03 124.54 506.03 152.58 477.79 216.93 465.58 219.75 468.4 252.86 462.19 275.34 438.18"/><polyline class="cls-4" points="285.81 500.55 268.68 398.47 280.76 395.58"/><line class="cls-4" x1="128.79" y1="112.3" x2="125.37" y2="274.23"/><line class="cls-4" x1="64.79" y1="225.44" x2="126.4" y2="225.44"/><line class="cls-4" x1="100.37" y1="178.91" x2="127.37" y2="178.91"/><line class="cls-4" x1="146.27" y1="235.55" x2="146.27" y2="271.01"/><line class="cls-4" x1="106.88" y1="127.05" x2="127.37" y2="127.05"/><line class="cls-4" x1="128.79" y1="130.35" x2="175.2" y2="130.35"/><polyline class="cls-4" points="175.19 122.09 175.19 144.5 181.44 151.63 204.03 137.88 204.03 127.05"/><polyline class="cls-4" points="220.74 138.8 170.24 173.14 170.24 203.08 158.78 203.08 158.78 234.96 126.4 234.96"/><polyline class="cls-4" points="175.19 144.5 154.44 151.63 154.44 159.74"/><polyline class="cls-4" points="128.78 159.74 168.95 159.74 175.19 168"/><polyline class="cls-4" points="148.09 159.74 148.09 182.81 158.78 204.02"/><line class="cls-4" x1="127.37" y1="182.67" x2="148.09" y2="182.67"/><polyline class="cls-4" points="158.78 234.96 158.78 257.6 174.68 257.6 204.91 287.84"/><polyline class="cls-4" points="170.68 258.29 170.68 275.92 153.73 294.61 160.15 300.37 144.32 317.64 140.55 318.09 137.78 326.23 135.74 325.72 130.25 347.87 107.33 352.52 96.26 382.42"/><polyline class="cls-4" points="271.7 416.47 221.05 370.44 190.5 470.59"/><polyline class="cls-4" points="220.74 195.69 201.22 210.7 183.25 230.06 176.73 223.74 198.73 200.63 220.74 186.01 234.14 181.88"/><polyline class="cls-4" points="219 176.73 198.06 185.22 181.84 199.25 190.9 208.86"/><line class="cls-4" x1="183.25" y1="202.8" x2="170.68" y2="216.43"/><polyline class="cls-4" points="241.12 201.81 224.21 207.94 194.5 237.56 204.03 247.83 224.21 228.68 221.31 211.97"/><polyline class="cls-4" points="212.71 274.23 244.14 268.27 251.29 263.62"/><line class="cls-4" x1="43.67" y1="385.31" x2="114.42" y2="382.91"/><polyline class="cls-4" points="46.28 415.05 68.37 415.05 110.1 447.62 162.14 454.9 179.42 451.35"/><path class="cls-4" d="M172.64,474l40.07-133.77L211,290.73l.67-25.36,23.07-29s10.25-2.43,11.47-2.7"/><polyline class="cls-4" points="182.84 405.58 149.44 467.96 141.34 467.96 130.83 479.9 139.92 489.32"/><polyline class="cls-4" points="192.46 408.6 159.25 391.35 152.75 391.35 148.63 369.47 157.63 362.72 162.13 352.47 162.75 313.35 155.88 306.35"/><polyline class="cls-4" points="49.38 300.97 79.75 300.97 91.66 278.24 94.73 226.85"/><polyline class="cls-4" points="114 278.35 112.88 295.6 97.25 316.1 84.88 382.91"/><polyline class="cls-4" points="79.75 300.97 97.25 316.1 139.75 326.72 182.84 326.72"/><line class="cls-4" x1="86.34" y1="429.08" x2="84.56" y2="456.97"/><line class="cls-4" x1="163.6" y1="475.7" x2="170.54" y2="522.93"/><polyline class="cls-4" points="232.14 466.08 236.39 487.24 241.06 510.46"/><line class="cls-4" x1="273.91" y1="480.01" x2="236.39" y2="487.24"/><polyline class="cls-4" points="205.34 364.81 221.05 370.44 253.52 363.71"/><polyline class="cls-4" points="262.12 311.73 229.43 318.69 233.21 339.19 184.34 342.3 179.42 285.2 189.47 282.63"/><polyline class="cls-4" points="244.29 315.53 259.74 390.25 337.52 371.39 379.98 285.56 354.36 261.4 361.86 246.58"/><polyline class="cls-4" points="259.06 283.97 492.42 373.91 489.77 365.2 504.9 361.18"/><polyline class="cls-4" points="443.83 327.88 379.98 391.93 376.47 415.05 345.44 443.02 304.43 429.08 293.59 382.04"/><polyline class="cls-4" points="337.52 371.39 359.81 401.3 377.45 408.6"/><polyline class="cls-4" points="358.57 401.63 348.71 410.83 330.96 388.65 343.08 378.86"/><line class="cls-4" x1="331.2" y1="438.18" x2="302.53" y2="473.99"/><polyline class="cls-4" points="348.02 350.18 289.41 324.44 270.93 328.66"/><polyline class="cls-4" points="277.24 357.47 304.81 350.18 323.5 310.57"/><line class="cls-4" x1="312.14" y1="377.55" x2="304.81" y2="350.18"/><polyline class="cls-4" points="396.26 203.06 394.45 222.48 316.32 278.24 315.19 287.84 298.08 298.4"/><polyline class="cls-4" points="400.1 338.33 434.4 303.45 459.66 298.4 480.89 327.88 489.77 365.2"/><polyline class="cls-4" points="374.74 296.15 348.02 268.92 322.77 290.27 315.26 304.85"/><line class="cls-4" x1="363.58" y1="271.6" x2="358.58" y2="277.64"/><line class="cls-4" x1="359.64" y1="280.76" x2="337.52" y2="312.47"/><line class="cls-4" x1="331.8" y1="282.64" x2="347.17" y2="297.59"/><polyline class="cls-4" points="412.07 247.83 371.01 327.12 374.74 348.83 352.05 388.18"/><line class="cls-4" x1="383.16" y1="331.8" x2="426.35" y2="272.7"/><polyline class="cls-4" points="379.04 398.11 503.4 466.08 504.9 471.63"/><polyline class="cls-4" points="376.62 414.02 387.55 453.33 400.1 467.42"/><polyline class="cls-4" points="423.51 422.42 387.55 453.33 342.9 463.03 323.28 448.07"/><polyline class="cls-4" points="343.08 464.5 335.21 475.48 337.52 491.4"/><line class="cls-4" x1="363.96" y1="458.46" x2="370.71" y2="487.24"/><line class="cls-4" x1="382.5" y1="454.43" x2="386.16" y2="482.25"/><polyline class="cls-4" points="431.19 426.61 414.27 445.1 414.27 458.46"/><line class="cls-4" x1="402.22" y1="440.72" x2="414.27" y2="445.1"/><line class="cls-4" x1="412.07" y1="416.16" x2="450.15" y2="357.62"/><line class="cls-4" x1="480.89" y1="327.88" x2="453.25" y2="353.59"/><polyline class="cls-4" points="433.1 286.03 477.23 271.6 506.69 366.22 514.56 368.6 531.4 390 534.51 433.38 534.51 450.95 577.33 495.24"/><polyline class="cls-4" points="525.37 384.13 499.5 394.93 492.42 373.91"/><polyline class="cls-4" points="440.3 429.11 463.12 434.87 498.09 418.36"/><polyline class="cls-4" points="466.44 445.88 485.93 438.8 487.25 407.08 498.97 395.55"/><polyline class="cls-4" points="486.81 438.8 516.23 459.58 523.45 480.11 579.71 530.22"/><polyline class="cls-4" points="412.07 459.59 495.8 504.11 544.09 498.49 562.63 480.04"/><line class="cls-4" x1="551.32" y1="468.34" x2="531.46" y2="487.24"/><line class="cls-4" x1="534.51" y1="445.88" x2="516.23" y2="459.58"/><line class="cls-4" x1="542.88" y1="476.37" x2="554.43" y2="488.2"/><line class="cls-4" x1="573.62" y1="491.4" x2="557.57" y2="510.5"/><polyline class="cls-4" points="568.01 521.28 554.43 548.1 504.9 562.86 485.7 553.54 498.97 535.94 531.46 525.85"/><polyline class="cls-4" points="434.48 472.85 442.23 567.72 457.21 571.31 484.81 553.98"/><line class="cls-4" x1="441.3" y1="568.22" x2="406.2" y2="581.35"/><polyline class="cls-4" points="522.41 481.85 514.4 501.94 518.41 530.22"/><line class="cls-4" x1="493.58" y1="504.1" x2="497.3" y2="538.15"/><polyline class="cls-4" points="438.25 519.01 447.23 518 470.32 551.42 463.12 557.15 467.76 564.69"/><polyline class="cls-4" points="443.13 566.49 450.01 561.74 464.38 542.82 441.3 543.39"/><line class="cls-4" x1="463.86" y1="542.07" x2="474.09" y2="536.18"/><polyline class="cls-4" points="447.23 518 447.23 514.24 477.53 504.9"/><line class="cls-4" x1="452.84" y1="481.26" x2="461.15" y2="466.08"/><line class="cls-4" x1="457" y1="476.37" x2="520.18" y2="470.8"/><polyline class="cls-4" points="377.93 234.28 389.73 252.97 380.89 261.4 321.59 210.54 301.28 177.78 328.96 156"/><path class="cls-4" d="M253.12,246.58c1.48,0,105.46-52.25,105.46-52.25"/><polyline class="cls-4" points="334.12 221.29 298.08 237.57 273.11 264.93 268.36 266.24 260 243.76"/><line class="cls-4" x1="316.7" y1="165.65" x2="341.18" y2="203.06"/><polyline class="cls-4" points="232.31 150.84 237.49 150.84 244.88 176.73 266.88 172.37 272.85 164.51 302.39 159.74"/><polyline class="cls-4" points="242.54 164.63 246.4 162.48 245.22 150.32 258.5 137.96 312.9 129.98"/><polyline class="cls-4" points="228.99 129.98 244.74 130.35 290.11 93.42 275.56 77.49 232.31 66.07"/><polyline class="cls-4" points="228.99 78.71 149.17 75.07 127.37 98.79"/><line class="cls-4" x1="180.51" y1="77.49" x2="176.52" y2="108.83"/><line class="cls-4" x1="153.43" y1="45.81" x2="90.3" y2="77.49"/><line class="cls-4" x1="127.37" y1="42" x2="128.79" y2="57.06"/><polyline class="cls-4" points="230.2 43.21 208.04 43.21 208.04 -1.98 218.08 -1.98 219.81 43.21"/><line class="cls-4" x1="187.72" y1="161.25" x2="192.26" y2="173.59"/><line class="cls-4" x1="208.23" y1="147.31" x2="210.64" y2="163.87"/><polyline class="cls-4" points="106.8 303.57 123.28 308.12 124.16 302.92 137.45 300.97 159.38 273.13"/><line class="cls-4" x1="137.78" y1="301.81" x2="131.65" y2="324.7"/><line class="cls-4" x1="94" y1="333.65" x2="130.83" y2="343"/><line class="cls-4" x1="107.33" y1="352.52" x2="91.29" y2="348.26"/><polyline class="cls-4" points="43.67 329.49 70.79 334.25 67.14 362.71 74.67 363.26"/><line class="cls-4" x1="71.02" y1="340.9" x2="92.03" y2="344.26"/><path class="cls-4" d="M60.05,366.25c0,.34,3.66,62,3.66,62l12.84.82"/><line class="cls-4" x1="53.52" y1="423.61" x2="63.37" y2="422.61"/><line class="cls-4" x1="72.34" y1="384.34" x2="76.55" y2="421.43"/><polyline class="cls-4" points="84.88 384.34 87.96 413.31 133.47 432.8 143.65 427.82 165.15 438.62"/><line class="cls-4" x1="87.07" y1="414.53" x2="81.53" y2="422.61"/><line class="cls-4" x1="133.47" y1="432.8" x2="139" y2="451.07"/><polyline class="cls-4" points="161.7 349.09 155.61 349.09 118.9 372.64 117.63 373.45 113.53 415.05 125.6 415.53 129.92 390.72 150.62 380.05"/><line class="cls-4" x1="129.37" y1="390.17" x2="118.96" y2="373.56"/><line class="cls-4" x1="157.71" y1="418.57" x2="170.54" y2="426.6"/><line class="cls-4" x1="150.3" y1="468.23" x2="153.69" y2="477.58"/><line class="cls-4" x1="147.31" y1="484.18" x2="151.99" y2="489.32"/><polyline class="cls-4" points="119.62 463.8 117.96 466.68 133.03 482.18"/><polyline class="cls-4" points="122.28 472.11 118.96 475.1 113.98 473.6"/><polyline class="cls-4" points="133.03 483.18 120.62 496.36 126.25 504.31"/><polyline class="cls-4" points="93.27 490.88 98.14 486.17 117.19 507.76"/><line class="cls-4" x1="168.75" y1="431.89" x2="182.84" y2="438.18"/><line class="cls-4" x1="190.5" y1="343" x2="171.41" y2="397.67"/><polyline class="cls-4" points="200.79 342.58 192.46 362.05 204.39 368"/><line class="cls-4" x1="181.15" y1="369.78" x2="201.37" y2="378.07"/><line class="cls-4" x1="195.79" y1="363.71" x2="191.26" y2="373.12"/><polyline class="cls-4" points="182.07 366.25 175.32 363.26 159.25 391.35"/><path class="cls-4" d="M361.08,170.63c.48.43,25.08,24.44,25.08,24.44l22.68-9.69"/><polyline class="cls-4" points="455.74 570.96 470.32 590.43 506.48 562.86"/><polyline class="cls-4" points="496.13 558.6 454.29 587.47 435.83 570.27"/><line class="cls-4" x1="408.42" y1="580.52" x2="433.1" y2="600.31"/><path class="cls-4" d="M512.43,560.62c.76,1.77,19,31.4,19,31.4"/><polyline class="cls-4" points="500.75 568.22 505.22 574.36 521.95 597.35"/><polyline class="cls-4" points="502.53 573.04 497.3 582.78 511.35 603.08"/><path class="cls-4" d="M500.75,611.37c1.58,0,36-21,36-21l36.92-25.72,3.71-4.07"/><line class="cls-4" x1="542.88" y1="552.51" x2="579.7" y2="600.31"/><line class="cls-4" x1="551.32" y1="549.03" x2="568.01" y2="569.1"/><polyline class="cls-4" points="571.63 589.82 554.43 601.1 548.66 589.82 547.78 589.71 541.39 588.86"/><line class="cls-4" x1="540.06" y1="612.56" x2="547.78" y2="589.71"/><path class="cls-4" d="M480,282.64c.63,0-21.06,15.76-21.06,15.76"/><path class="cls-4" d="M489.77,311.88s-16.5,3.46-16.5,3.46"/><line class="cls-4" x1="81.53" y1="538.62" x2="97.1" y2="620.41"/><line class="cls-4" x1="104.05" y1="534.19" x2="120.62" y2="613.03"/><line class="cls-4" x1="109.48" y1="568.18" x2="57.41" y2="580.13"/></g><g id="그룹_1" data-name="그룹 1"><path class="cls-5" d="M39.08,555.93,28,331.23l.19-1c.32-1.65,32.44-167,38.6-205.24C72.49,89.52,71.23,2.34,71.06-8l16-.3c.11,6.49.65,42-.32,77a1,1,0,0,0,.24.67,96.79,96.79,0,0,0,18.41,16.22.41.41,0,0,0,.11.07l2.8,1.89c2.51,1.63,5,3.11,7.52,4.52,27.68,14.08,81.28,17.7,103,18.61h0a1,1,0,0,0,1-1c.58-20.49,2.7-71.62,3.91-100.28a.76.76,0,0,0,0-.15,63.4,63.4,0,0,1,.77-19l13,1.78c-.1,2.24-.36,8.41-.72,16.9a.86.86,0,0,0,0,.16c1.16,9.52,5.56,22.56,19.88,30.65,5.52,3.12,11.32,6,17.46,9.12,27.59,13.86,58.88,29.56,59.1,65.74a34.2,34.2,0,0,0,1.41,9.37,1,1,0,0,0,1,.72h.13a1,1,0,0,0,.87-1c.38-22.07,8.49-41.66,24.12-58.23,17-18,35.59-27.14,55.28-27.14S451.24,47.71,457,51.74c1.54,1.08,3,2.16,4.48,3.22,7.53,5.48,12.43,8.85,18,8.84a11.77,11.77,0,0,0,1.18,0c7.71-.64,17.77-7.94,30.76-22.3l3.35-3.71a1,1,0,0,0,.2-1L487.57-40l43.32-15.47L628.6,218.18l-43.32,15.47L520.68,52.73a1,1,0,0,0-.74-.64l-.21,0a1,1,0,0,0-.73.32c-14.77,15.9-26.27,23.4-37.26,24.32-.76.06-1.52.09-2.27.09-10.09,0-18-5.76-25.66-11.33l-.12-.09c-1.36-1-2.74-2-4.17-3-5.86-4.11-18-11-33.08-11-16.25,0-31.8,7.75-46.21,23-31.61,33.51-17.59,72.49-17,74.14a.91.91,0,0,0,.09.17c.18.3,4.54,7.35,7.45,9.69,15.28,12.32,30.22,18.84,34.46,19.45h.15a.82.82,0,0,0,.22,0c.89-.21,2.32-.62,3.69-1,6.24-1.79,16.67-4.77,28.36-4.77,19.29,0,34.19,8.25,44.29,24.51,3.4,5.49,6.78,10.81,10,15.95l.05.09c17.5,27.58,32.61,51.4,35.35,74.45,2.66,22.39,13,46.94,19.82,63.18l2,4.87a75.57,75.57,0,0,0,6.65,12.5c3.57,5.69,7,11.06,7.79,23.28.28,4-.34,8.57-1,13.36-2.51,18.56-5.64,41.62,31.94,65.39l-6.87,11c-44.71-28.27-40.48-59.47-37.95-78.17.58-4.31,1.09-8,.9-10.73-.61-9-2.58-12.08-5.83-17.25a88.82,88.82,0,0,1-7.64-14.43l-2-4.77c-7.13-17-17.88-42.53-20.76-66.74-2.39-20.12-16.77-42.78-33.41-69-3.3-5.2-6.71-10.57-10.17-16.14-7.64-12.31-18.49-18.3-33.17-18.3-9.13,0-18.56,2.39-24.85,4.2-2.26.65-4.05,1.16-5.49,1.41a9,9,0,0,1-1.53.12c-9.84,0-31.21-12.29-45-23.77a125.51,125.51,0,0,1-9.41-8.67,1,1,0,0,0-.72-.3,1,1,0,0,0-.64.23,1,1,0,0,0-.17,1.35l28.66,39.72a1,1,0,0,0,.79.41l53.33,1.1,11.48,25.47L429.43,261a.86.86,0,0,0,0,.39l38.25,142.32L389.87,486.4l-75.25,13.66a1,1,0,0,0-.79,1.23c.11.42.21.78.29,1,1,3.48,2.87,9.06,5.07,15.52,9,26.56,24.07,70.81,21.49,99.67l-12.93-1.36C330,590.05,315,545.9,306.88,522c-2.35-6.92-4.21-12.38-5.28-16.17-.15-.54-.36-1.35-.61-2.38a1,1,0,0,0-1-.76h-.18L55.54,547.09a1,1,0,0,0-.82,1l.25,5.14a1.43,1.43,0,0,0,0,.22l20.74,75.58-15.43,4.24Zm15.64-274.5a1,1,0,0,0-1,.81c-4.93,25.62-8.74,45.3-9.66,50a1.66,1.66,0,0,0,0,.24L54.32,540.07a1,1,0,0,0,.38.73,1,1,0,0,0,.62.22l.18,0,242.83-44.08a1,1,0,0,0,.66-.44,1,1,0,0,0,.14-.77c-7.41-31.83-28.38-127.32-45.82-207a1,1,0,0,0-1-.79h-.15l-39.77,5.73-56.73-19.5a.87.87,0,0,0-.32-.06l-.2,0-41,8.21Zm213.6,9.4a1,1,0,0,0-.65.24,1,1,0,0,0-.33,1C283.08,363.9,304.83,463,312,493.48a1,1,0,0,0,1,.77h.18l73.43-13.33a1,1,0,0,0,.55-.3l73.59-78.16a1,1,0,0,0,.23-.94l-11-41.14a1,1,0,0,0-.61-.68L268.68,290.9A.92.92,0,0,0,268.32,290.83ZM236.49,40.34a1,1,0,0,0-.34.06,1,1,0,0,0-.66.9c-1.29,31.34-2.81,70-2.74,76.1.1,9.38.85,21.75,5.59,42.4,1.36,5.93,8.14,36.94,17.54,79.86l9.42,43a1,1,0,0,0,.62.73L446,352a1.13,1.13,0,0,0,.36.06,1,1,0,0,0,.67-.26,1,1,0,0,0,.29-1l-24-89.24,4.69-34a1,1,0,0,0-.07-.54l-8.84-19.61a1,1,0,0,0-.9-.59l-52.39-1.07L308.9,126.94l7.2-29.62a1,1,0,0,0-.08-.69c-8.32-16.38-27.44-26-47.68-36.14-6-3-12.23-6.15-18-9.42a52,52,0,0,1-13.09-10.4A1,1,0,0,0,236.49,40.34ZM212.77,287.48a1.26,1.26,0,0,0,.33,0h.14l37.52-5.41a1,1,0,0,0,.68-.42,1,1,0,0,0,.16-.78l-8.47-38.67c-9-41.16-16.12-73.68-17.46-79.53-1.6-7-2.83-13.26-3.75-19.21a1,1,0,0,0-.31-.59c-5.9-5.39-19.94-15.54-47.73-23l-.13,0c-29.62-3.83-51.89-9.74-66.19-17.58a1,1,0,0,0-1.12.11L83.76,121.1a1,1,0,0,0-.36.64c-.26,2.09-.54,4.05-.83,5.84-3.74,23.18-16.91,92.56-27.3,146.69a1,1,0,0,0,.21.82,1,1,0,0,0,.76.37l57.33.89a.62.62,0,0,0,.19,0l42.09-8.42ZM319.25,113a1,1,0,0,0-1,.76l-2.79,11.48a1,1,0,0,0,.16.83l8.14,11.27a1,1,0,0,0,.81.42,1.06,1.06,0,0,0,.51-.14,1,1,0,0,0,.39-1.29,50.87,50.87,0,0,1-5.22-21.62c0-.15,0-.29,0-.43V114a1,1,0,0,0-.89-1ZM212.54,123.37a1,1,0,0,0-.49,1.87c2.32,1.3,4.54,2.65,6.59,4a1,1,0,0,0,1.06,0,1,1,0,0,0,.49-.94c-.09-1.25-.16-2.49-.22-3.74a1,1,0,0,0-1-1c-1.83-.07-4-.17-6.42-.29ZM87.21,83a1.08,1.08,0,0,0-.38.08,1,1,0,0,0-.61.88c-.26,6.08-.57,11.77-.91,16.9a1,1,0,0,0,.55,1,1,1,0,0,0,.45.11,1,1,0,0,0,.64-.23l10.76-8.85a1,1,0,0,0,.37-.8,1,1,0,0,0-.41-.77,113.29,113.29,0,0,1-9.78-8A1,1,0,0,0,87.21,83Z"/><path class="cls-6" d="M530.28-54.17l97,271.74-41.43,14.8-64.27-180a2,2,0,0,0-1.48-1.29,1.9,1.9,0,0,0-.41,0,2,2,0,0,0-1.46.64c-14.59,15.7-25.89,23.1-36.62,24-.73.06-1.46.09-2.18.09-9.77,0-17.55-5.66-25.08-11.14l-.11-.09c-1.35-1-2.74-2-4.18-3-6-4.18-18.26-11.19-33.66-11.19-16.54,0-32.33,7.86-46.94,23.34-32,34-17.8,73.51-17.18,75.18a1.62,1.62,0,0,0,.17.35c.47.76,4.68,7.53,7.67,9.94,15.43,12.44,30.61,19,34.95,19.66a1.42,1.42,0,0,0,.29,0,1.73,1.73,0,0,0,.45-.05c.91-.21,2.35-.62,3.74-1,6.18-1.77,16.53-4.73,28.08-4.73,18.92,0,33.53,8.09,43.44,24,3.41,5.49,6.78,10.81,10.05,16l0,.08c17.43,27.48,32.48,51.21,35.2,74,2.68,22.53,13,47.15,19.89,63.45l2,4.87a75.67,75.67,0,0,0,6.72,12.64C548.72,374,551.88,379,552.7,391c.27,3.94-.34,8.42-1,13.16C549.19,422.83,546,446,583.28,470l-5.81,9.34C558.59,467.19,547,453.66,542.1,438c-4.24-13.52-2.53-26.13-1.28-35.34a61.12,61.12,0,0,0,.91-10.93c-.63-9.21-2.65-12.41-6-17.72a88.93,88.93,0,0,1-7.56-14.27q-.95-2.28-2-4.83c-7.09-16.87-17.8-42.35-20.66-66.41-2.42-20.35-16.86-43.1-33.57-69.45-3.29-5.19-6.7-10.55-10.16-16.13-7.84-12.63-19-18.77-34-18.77-9.26,0-18.77,2.42-25.12,4.24-2.24.64-4,1.14-5.4,1.39a7.91,7.91,0,0,1-1.35.1c-9.63,0-30.71-12.17-44.35-23.54a125.54,125.54,0,0,1-9.33-8.6,2,2,0,0,0-1.44-.6,2,2,0,0,0-1.28.47,2,2,0,0,0-.34,2.7L367.79,200a2,2,0,0,0,1.58.83l52.69,1.08,11.11,24.64-4.73,34.31a2.09,2.09,0,0,0,.05.79L466.6,403.44l-77.23,82-.65.12-74.27,13.48a2,2,0,0,0-1.33.89,2,2,0,0,0-.25,1.58c.1.42.2.8.28,1.07,1,3.5,2.89,9.09,5.09,15.57,8.9,26.18,23.66,69.59,21.53,98.25l-10.95-1.15c1.82-26.45-13-69.93-21-93.56-2.35-6.9-4.2-12.35-5.27-16.12-.14-.51-.34-1.3-.6-2.35a2,2,0,0,0-1.94-1.52l-.36,0L55.36,546.11a2,2,0,0,0-1.64,2.07l.25,5.14a2,2,0,0,0,.07.43l20.48,74.62L61,632.08,40.08,555.77l0-.77L29,331.3l.16-.83c.32-1.66,32.5-167.37,38.61-205.28C73.34,90.55,72.3,7,72.08-7l14-.27c.14,8.56.59,42.51-.34,75.91A2,2,0,0,0,86.22,70a97.89,97.89,0,0,0,18.6,16.4l.16.1,2.79,1.87c2.52,1.64,5,3.13,7.56,4.56l.07,0c27.82,14.15,81.59,17.79,103.42,18.69h.08a2,2,0,0,0,2-1.95c.58-20.51,2.69-71.62,3.91-100.27,0-.1,0-.2,0-.3a62.7,62.7,0,0,1,.57-17.73l11.15,1.53c-.12,2.75-.36,8.46-.68,16a1.69,1.69,0,0,0,0,.32c1.19,9.75,5.69,23.11,20.38,31.4,5.54,3.13,11.35,6.05,17.5,9.14,27.34,13.73,58.33,29.29,58.55,64.86a35,35,0,0,0,1.45,9.64,2,2,0,0,0,1.92,1.44h.26a2,2,0,0,0,1.74-2c.37-21.82,8.4-41.19,23.85-57.56,16.79-17.81,35.15-26.83,54.55-26.83s34.69,9.24,40.36,13.21c1.57,1.1,3.11,2.22,4.46,3.2,7.7,5.61,12.71,9,18.6,9,.41,0,.84,0,1.26,0,8.09-.68,18.07-7.87,31.42-22.63l2.18-2.41,1.17-1.3a2,2,0,0,0,.4-2l-27-75.77,41.43-14.8m-84,407.26a2,2,0,0,0,1.93-2.52l-23.94-89L429,227.72a2,2,0,0,0-.16-1.09L420,207a2,2,0,0,0-1.79-1.18l-51.89-1.06-56.32-78,7.09-29.17a2,2,0,0,0-.16-1.38c-8.47-16.68-27.73-26.35-48.15-36.6-6-3-12.18-6.12-17.95-9.38A51,51,0,0,1,238,40a2,2,0,0,0-3.48,1.26c-1.29,31.35-2.81,70-2.74,76.15.1,9.44.85,21.87,5.61,42.61,1.36,5.92,8.13,36.86,17.5,79.68l.24,1.08c2.85,13,6,27.25,9.22,42.14a2,2,0,0,0,1.24,1.44l180,68.6a2,2,0,0,0,.72.13m-360-250.22a2,2,0,0,0,1.27-.45l10.77-8.85a2,2,0,0,0-.09-3.16,111.24,111.24,0,0,1-9.69-7.93A2,2,0,0,0,87.21,82a1.89,1.89,0,0,0-.76.16,2,2,0,0,0-1.23,1.76c-.26,6.07-.56,11.74-.9,16.87a2,2,0,0,0,2,2.13m27.26,174.48a1.72,1.72,0,0,0,.39,0l41.82-8.37,56.67,19.48a2.06,2.06,0,0,0,.65.11l.28,0,37.52-5.41a2,2,0,0,0,1.67-2.4l-8.22-37.57-.2-.93c-9-41.26-16.16-73.85-17.51-79.72-1.59-6.95-2.81-13.21-3.73-19.14a2,2,0,0,0-.63-1.17c-6-5.45-20.15-15.71-48.14-23.19l-.26,0c-29.5-3.81-51.65-9.69-65.84-17.46a2,2,0,0,0-2.23.21L83.12,120.32a2,2,0,0,0-.71,1.3c-.27,2.07-.54,4-.83,5.8C77.85,150.57,64.68,220,54.29,274.08a2,2,0,0,0,.41,1.64,2,2,0,0,0,1.52.73l57.32.9h0m211-138.61a2,2,0,0,0,1.8-2.86,49.86,49.86,0,0,1-5.12-21.19c0-.17,0-.33,0-.49s0-.18,0-.26a2,2,0,0,0-1.78-2h-.22a2,2,0,0,0-1.94,1.53L314.52,125a2,2,0,0,0,.32,1.64L323,137.91a2,2,0,0,0,1.62.83m-105.4-8.31a1.92,1.92,0,0,0,1-.28,2,2,0,0,0,1-1.87c-.08-1.14-.15-2.36-.22-3.72a2,2,0,0,0-1.92-1.9c-2.08-.08-4.23-.18-6.41-.29h-.1a2,2,0,0,0-1,3.74c2.3,1.29,4.49,2.63,6.53,4a2,2,0,0,0,1.11.34M114.12,281.36l-59.37-.93h0a2,2,0,0,0-2,1.62c-5,26.11-8.93,46.24-9.66,50a1.94,1.94,0,0,0,0,.48L53.32,540.12a2,2,0,0,0,.76,1.47,2,2,0,0,0,1.24.43l.36,0L298.51,497.9a2,2,0,0,0,1.32-.87,2,2,0,0,0,.27-1.55c-7.41-31.82-28.37-127.31-45.81-207a2,2,0,0,0-1.95-1.57l-.29,0-39.53,5.7L156,273.25a2.06,2.06,0,0,0-.65-.11,1.75,1.75,0,0,0-.4,0l-40.85,8.18m198.8,213.89.36,0,73.43-13.33a2,2,0,0,0,1.1-.6l73.58-78.15a2,2,0,0,0,.48-1.89l-11.06-41.14a2,2,0,0,0-1.22-1.35L269,290a1.94,1.94,0,0,0-.71-.13,2,2,0,0,0-1.95,2.43C282.1,364.1,303.84,463.15,311,493.71a2,2,0,0,0,1.94,1.54m218.58-552L486.29-40.58,514,37.07l-3.35,3.71c-12.81,14.16-22.66,21.35-30.11,22-.37,0-.73,0-1.09,0-5.25,0-10-3.21-17.42-8.65-1.46-1.06-2.95-2.15-4.49-3.23-6.47-4.53-21.87-13.57-41.51-13.57-16.57,0-36.18,6.43-56,27.45-19,20.14-24.1,41.94-24.39,58.9a32.81,32.81,0,0,1-1.37-9.09C334.05,77.82,302.48,62,274.63,48c-6.13-3.07-11.92-6-17.42-9.09C243.59,31.19,239.05,19,237.84,9c.44-10.55.74-17.53.75-17.81l-14.79-2a62.38,62.38,0,0,0-1,20.18c-1.19,28.09-3.33,79.67-3.91,100.3-19.61-.82-74.77-4.33-102.6-18.48-2.67-1.49-5.14-3-7.44-4.48l-2.9-2h0a96.44,96.44,0,0,1-18.22-16c1-37.56.35-75.5.3-78L70.05-9c0,1,1.76,96.47-4.27,133.85-6.13,38-38.27,203.55-38.59,205.21L27,331.16,38,555.1l.05,1,21.53,78.46L77,629.77,56,553.22l-.25-5.14L300,503.73c.26,1,.48,1.86.63,2.41,1.08,3.82,2.94,9.29,5.29,16.22,8.19,24.09,23.43,68.94,20.73,94.71l14.92,1.56c3.05-29-12.29-74.15-21.45-101.1-2.19-6.45-4.08-12-5.05-15.46-.08-.26-.17-.62-.28-1l74.28-13.48,1.29-.24L468.82,404l-38.4-142.86,4.81-34.88L423.37,200l-54-1.11-28.66-39.71a126.59,126.59,0,0,0,9.49,8.73c14.23,11.86,35.61,24,45.63,24a10,10,0,0,0,1.7-.13c1.49-.27,3.31-.79,5.6-1.44,8.05-2.31,16.48-4.16,24.57-4.16,12.34,0,23.92,4.3,32.32,17.83,3.46,5.57,6.87,10.95,10.17,16.14,16.58,26.14,30.9,48.72,33.27,68.61,2.89,24.35,13.68,50,20.81,67q1.08,2.54,2,4.82a90.73,90.73,0,0,0,7.72,14.57c3.28,5.21,5.08,8.08,5.68,16.79a60.33,60.33,0,0,1-.89,10.53c-2.58,19.05-6.9,50.93,39.26,79.68L586,469.33c-37.93-23.61-34.82-46.52-32.33-64.93.66-4.85,1.28-9.43,1-13.56-.86-12.48-4.3-18-8-23.75a76.25,76.25,0,0,1-6.57-12.35c-.63-1.53-1.32-3.16-2-4.88C531.33,333.67,521,309.2,518.39,287c-2.76-23.28-17.93-47.19-35.49-74.87-3.28-5.17-6.67-10.51-10.09-16-12.31-19.84-29.75-25-45.14-25-11.83,0-22.45,3-28.63,4.81-1.38.39-2.79.8-3.64,1-3.67-.52-18.52-6.77-34-19.24-2.8-2.26-7.22-9.43-7.22-9.43-.6-1.62-14.43-40,16.77-73.1,16.32-17.31,32.12-22.72,45.48-22.72,14.55,0,26.21,6.41,32.51,10.82,1.47,1,2.88,2.06,4.27,3.07C461,72,469.06,77.8,479.47,77.8c.77,0,1.55,0,2.35-.09,11.22-.95,23-8.59,37.91-24.64l64.95,181.86,45.2-16.15L531.5-56.72ZM446.32,351.09l-180-68.6c-3.26-14.89-6.37-29.12-9.22-42.13-9.5-43.43-16.37-74.81-17.74-80.79-4.71-20.55-5.46-32.85-5.56-42.18-.07-6,1.4-43.49,2.74-76a52.47,52.47,0,0,0,13.34,10.6c5.82,3.29,12,6.42,18.06,9.44,20,10,39.07,19.63,47.24,35.7l-7.32,30.07,57.45,79.61,52.89,1.08L427,227.45l-4.71,34.21,24,89.43Zm-360-250.22c.36-5.41.66-11.1.9-16.92A114.62,114.62,0,0,0,97.08,92l-10.77,8.85Zm27.26,174.48-57.32-.89c10-52.1,23.53-123.27,27.3-146.72q.45-2.76.84-5.87l22.69-18.65c17.06,9.35,43.15,14.67,66.55,17.69,27.59,7.38,41.52,17.45,47.31,22.74.92,6,2.16,12.33,3.75,19.28,1.36,5.9,8.57,38.88,17.71,80.63,2.6,11.9,5.37,24.53,8.22,37.56l-37.52,5.41-57.18-19.66-42.35,8.48Zm211-138.61-8.14-11.28L319.25,114c0,.24,0,.47,0,.72a51.67,51.67,0,0,0,5.32,22Zm-105.4-8.31c-2-1.32-4.19-2.68-6.66-4.06,2.43.12,4.59.22,6.43.29.06,1.25.14,2.51.23,3.77ZM114.3,283.37l41.07-8.23,57,19.59,40-5.77c17.79,81.21,38.45,175.32,45.83,207L55.32,540,45.06,332.45c.92-4.72,4.74-24.4,9.66-50l59.58.94ZM312.93,493.25c-6.93-29.66-27.41-122.87-44.61-201.42l180.56,68.8,11.06,41.14-73.59,78.15-73.42,13.33Z"/></g><g id="레이어_15" data-name="레이어 15"><text class="cls-7" transform="translate(190.6 115.25)">후암<tspan x="-3" y="7.2">사거리</tspan></text><text class="cls-8" transform="translate(225.3 70.58)">소<tspan x="-0.32" y="7.2">월</tspan><tspan x="-0.64" y="14.4">로</tspan><tspan x="0.32" y="21.6">2</tspan><tspan x="-1.27" y="28.8">길</tspan></text><text class="cls-8" transform="translate(267.44 333.06)">후<tspan x="0.75" y="7.2">암</tspan><tspan x="2.12" y="14.4">로</tspan></text><text class="cls-8" transform="translate(300.13 481.02)">후<tspan x="0.75" y="7.2">암</tspan><tspan x="2.12" y="14.4">로</tspan></text><text class="cls-8" transform="translate(340.61 152.31)">소<tspan x="7.1" y="7.2">월</tspan><tspan x="14.19" y="14.4">로</tspan></text><text class="cls-8" transform="translate(543.83 395.1)">소<tspan x="-0.12" y="7.2">월</tspan><tspan x="-0.24" y="14.4">로</tspan></text></g></svg>